<svg width="1129" height="200" viewBox="0 0 1129 200" fill="none" xmlns="http://www.w3.org/2000/svg">
<rect width="1129" height="200" rx="10" fill="#4F0000"/>
<path d="M622.261 76H769.671C772.432 76 774.671 78.2386 774.671 81V119C774.671 121.761 772.432 124 769.671 124H622.261V76Z" fill="#FF5959"/>
<path d="M662.309 106.112C661.563 106.112 660.891 105.984 660.293 105.728C659.696 105.461 659.227 105.088 658.885 104.608C658.544 104.128 658.373 103.568 658.373 102.928H660.325C660.368 103.408 660.555 103.803 660.885 104.112C661.227 104.421 661.701 104.576 662.309 104.576C662.939 104.576 663.429 104.427 663.781 104.128C664.133 103.819 664.309 103.424 664.309 102.944C664.309 102.571 664.197 102.267 663.973 102.032C663.76 101.797 663.488 101.616 663.157 101.488C662.837 101.36 662.389 101.221 661.813 101.072C661.088 100.88 660.496 100.688 660.037 100.496C659.589 100.293 659.205 99.984 658.885 99.568C658.565 99.152 658.405 98.5973 658.405 97.904C658.405 97.264 658.565 96.704 658.885 96.224C659.205 95.744 659.653 95.376 660.229 95.12C660.805 94.864 661.472 94.736 662.229 94.736C663.307 94.736 664.187 95.008 664.869 95.552C665.563 96.0853 665.947 96.8213 666.021 97.76H664.005C663.973 97.3547 663.781 97.008 663.429 96.72C663.077 96.432 662.613 96.288 662.037 96.288C661.515 96.288 661.088 96.4213 660.757 96.688C660.427 96.9547 660.261 97.3387 660.261 97.84C660.261 98.1813 660.363 98.464 660.565 98.688C660.779 98.9013 661.045 99.072 661.365 99.2C661.685 99.328 662.123 99.4667 662.677 99.616C663.413 99.8187 664.011 100.021 664.469 100.224C664.939 100.427 665.333 100.741 665.653 101.168C665.984 101.584 666.149 102.144 666.149 102.848C666.149 103.413 665.995 103.947 665.685 104.448C665.387 104.949 664.944 105.355 664.357 105.664C663.781 105.963 663.099 106.112 662.309 106.112ZM676.286 97.184V106H674.462V104.96C674.174 105.323 673.795 105.611 673.326 105.824C672.867 106.027 672.376 106.128 671.854 106.128C671.16 106.128 670.536 105.984 669.982 105.696C669.438 105.408 669.006 104.981 668.686 104.416C668.376 103.851 668.222 103.168 668.222 102.368V97.184H670.03V102.096C670.03 102.885 670.227 103.493 670.622 103.92C671.016 104.336 671.555 104.544 672.238 104.544C672.92 104.544 673.459 104.336 673.854 103.92C674.259 103.493 674.462 102.885 674.462 102.096V97.184H676.286ZM680.516 98.496C680.826 98.0693 681.247 97.7227 681.78 97.456C682.324 97.1787 682.927 97.04 683.588 97.04C684.367 97.04 685.071 97.2267 685.7 97.6C686.33 97.9733 686.826 98.5067 687.188 99.2C687.551 99.8827 687.732 100.667 687.732 101.552C687.732 102.437 687.551 103.232 687.188 103.936C686.826 104.629 686.324 105.173 685.684 105.568C685.055 105.952 684.356 106.144 683.588 106.144C682.906 106.144 682.298 106.011 681.764 105.744C681.242 105.477 680.826 105.136 680.516 104.72V106H678.692V94.16H680.516V98.496ZM685.876 101.552C685.876 100.944 685.748 100.421 685.492 99.984C685.247 99.536 684.916 99.2 684.5 98.976C684.095 98.7413 683.658 98.624 683.188 98.624C682.73 98.624 682.292 98.7413 681.876 98.976C681.471 99.2107 681.14 99.552 680.884 100C680.639 100.448 680.516 100.976 680.516 101.584C680.516 102.192 680.639 102.725 680.884 103.184C681.14 103.632 681.471 103.973 681.876 104.208C682.292 104.443 682.73 104.56 683.188 104.56C683.658 104.56 684.095 104.443 684.5 104.208C684.916 103.963 685.247 103.611 685.492 103.152C685.748 102.693 685.876 102.16 685.876 101.552ZM692.736 106.144C692.043 106.144 691.419 106.021 690.864 105.776C690.32 105.52 689.888 105.179 689.568 104.752C689.248 104.315 689.077 103.829 689.056 103.296H690.944C690.976 103.669 691.152 103.984 691.472 104.24C691.803 104.485 692.213 104.608 692.704 104.608C693.216 104.608 693.611 104.512 693.888 104.32C694.176 104.117 694.32 103.861 694.32 103.552C694.32 103.221 694.16 102.976 693.84 102.816C693.531 102.656 693.035 102.48 692.352 102.288C691.691 102.107 691.152 101.931 690.736 101.76C690.32 101.589 689.957 101.328 689.648 100.976C689.349 100.624 689.2 100.16 689.2 99.584C689.2 99.1147 689.339 98.688 689.616 98.304C689.893 97.9093 690.288 97.6 690.8 97.376C691.323 97.152 691.92 97.04 692.592 97.04C693.595 97.04 694.4 97.296 695.008 97.808C695.627 98.3093 695.957 98.9973 696 99.872H694.176C694.144 99.4773 693.984 99.1627 693.696 98.928C693.408 98.6933 693.019 98.576 692.528 98.576C692.048 98.576 691.68 98.6667 691.424 98.848C691.168 99.0293 691.04 99.2693 691.04 99.568C691.04 99.8027 691.125 100 691.296 100.16C691.467 100.32 691.675 100.448 691.92 100.544C692.165 100.629 692.528 100.741 693.008 100.88C693.648 101.051 694.171 101.227 694.576 101.408C694.992 101.579 695.349 101.835 695.648 102.176C695.947 102.517 696.101 102.971 696.112 103.536C696.112 104.037 695.973 104.485 695.696 104.88C695.419 105.275 695.024 105.584 694.512 105.808C694.011 106.032 693.419 106.144 692.736 106.144ZM697.475 101.584C697.475 100.677 697.656 99.8827 698.019 99.2C698.392 98.5067 698.904 97.9733 699.555 97.6C700.205 97.2267 700.952 97.04 701.795 97.04C702.861 97.04 703.741 97.296 704.435 97.808C705.139 98.3093 705.613 99.0293 705.859 99.968H703.891C703.731 99.5307 703.475 99.1893 703.123 98.944C702.771 98.6987 702.328 98.576 701.795 98.576C701.048 98.576 700.451 98.8427 700.003 99.376C699.565 99.8987 699.347 100.635 699.347 101.584C699.347 102.533 699.565 103.275 700.003 103.808C700.451 104.341 701.048 104.608 701.795 104.608C702.851 104.608 703.549 104.144 703.891 103.216H705.859C705.603 104.112 705.123 104.827 704.419 105.36C703.715 105.883 702.84 106.144 701.795 106.144C700.952 106.144 700.205 105.957 699.555 105.584C698.904 105.2 698.392 104.667 698.019 103.984C697.656 103.291 697.475 102.491 697.475 101.584ZM709.501 98.464C709.767 98.016 710.119 97.6693 710.557 97.424C711.005 97.168 711.533 97.04 712.141 97.04V98.928H711.677C710.962 98.928 710.418 99.1093 710.045 99.472C709.682 99.8347 709.501 100.464 709.501 101.36V106H707.677V97.184H709.501V98.464ZM714.745 96.016C714.415 96.016 714.137 95.904 713.913 95.68C713.689 95.456 713.577 95.1787 713.577 94.848C713.577 94.5173 713.689 94.24 713.913 94.016C714.137 93.792 714.415 93.68 714.745 93.68C715.065 93.68 715.337 93.792 715.561 94.016C715.785 94.24 715.897 94.5173 715.897 94.848C715.897 95.1787 715.785 95.456 715.561 95.68C715.337 95.904 715.065 96.016 714.745 96.016ZM715.641 97.184V106H713.817V97.184H715.641ZM719.86 98.496C720.169 98.0693 720.591 97.7227 721.124 97.456C721.668 97.1787 722.271 97.04 722.932 97.04C723.711 97.04 724.415 97.2267 725.044 97.6C725.673 97.9733 726.169 98.5067 726.532 99.2C726.895 99.8827 727.076 100.667 727.076 101.552C727.076 102.437 726.895 103.232 726.532 103.936C726.169 104.629 725.668 105.173 725.028 105.568C724.399 105.952 723.7 106.144 722.932 106.144C722.249 106.144 721.641 106.011 721.108 105.744C720.585 105.477 720.169 105.136 719.86 104.72V106H718.036V94.16H719.86V98.496ZM725.22 101.552C725.22 100.944 725.092 100.421 724.836 99.984C724.591 99.536 724.26 99.2 723.844 98.976C723.439 98.7413 723.001 98.624 722.532 98.624C722.073 98.624 721.636 98.7413 721.22 98.976C720.815 99.2107 720.484 99.552 720.228 100C719.983 100.448 719.86 100.976 719.86 101.584C719.86 102.192 719.983 102.725 720.228 103.184C720.484 103.632 720.815 103.973 721.22 104.208C721.636 104.443 722.073 104.56 722.532 104.56C723.001 104.56 723.439 104.443 723.844 104.208C724.26 103.963 724.591 103.611 724.836 103.152C725.092 102.693 725.22 102.16 725.22 101.552ZM736.96 101.376C736.96 101.707 736.938 102.005 736.896 102.272H730.16C730.213 102.976 730.474 103.541 730.944 103.968C731.413 104.395 731.989 104.608 732.672 104.608C733.653 104.608 734.346 104.197 734.752 103.376H736.72C736.453 104.187 735.968 104.853 735.264 105.376C734.57 105.888 733.706 106.144 732.672 106.144C731.829 106.144 731.072 105.957 730.4 105.584C729.738 105.2 729.216 104.667 728.832 103.984C728.458 103.291 728.272 102.491 728.272 101.584C728.272 100.677 728.453 99.8827 728.816 99.2C729.189 98.5067 729.706 97.9733 730.368 97.6C731.04 97.2267 731.808 97.04 732.672 97.04C733.504 97.04 734.245 97.2213 734.896 97.584C735.546 97.9467 736.053 98.4587 736.416 99.12C736.778 99.7707 736.96 100.523 736.96 101.376ZM735.056 100.8C735.045 100.128 734.805 99.5893 734.336 99.184C733.866 98.7787 733.285 98.576 732.592 98.576C731.962 98.576 731.424 98.7787 730.976 99.184C730.528 99.5787 730.261 100.117 730.176 100.8H735.056Z" fill="white"/>
<path d="M355.3 81C355.3 78.2386 357.539 76 360.3 76H622.261V124H360.3C357.539 124 355.3 121.761 355.3 119V81Z" fill="#D9D9D9"/>
<path d="M378.376 96.352V99.616H382.216V101.104H378.376V104.512H382.696V106H376.552V94.864H382.696V96.352H378.376ZM395.614 97.04C396.308 97.04 396.926 97.184 397.47 97.472C398.025 97.76 398.457 98.1867 398.766 98.752C399.086 99.3173 399.246 100 399.246 100.8V106H397.438V101.072C397.438 100.283 397.241 99.68 396.846 99.264C396.452 98.8373 395.913 98.624 395.23 98.624C394.548 98.624 394.004 98.8373 393.598 99.264C393.204 99.68 393.006 100.283 393.006 101.072V106H391.198V101.072C391.198 100.283 391.001 99.68 390.606 99.264C390.212 98.8373 389.673 98.624 388.99 98.624C388.308 98.624 387.764 98.8373 387.358 99.264C386.964 99.68 386.766 100.283 386.766 101.072V106H384.942V97.184H386.766V98.192C387.065 97.8293 387.444 97.5467 387.902 97.344C388.361 97.1413 388.852 97.04 389.374 97.04C390.078 97.04 390.708 97.1893 391.262 97.488C391.817 97.7867 392.244 98.2187 392.542 98.784C392.809 98.2507 393.225 97.8293 393.79 97.52C394.356 97.2 394.964 97.04 395.614 97.04ZM400.959 101.552C400.959 100.667 401.141 99.8827 401.503 99.2C401.877 98.5173 402.378 97.9893 403.007 97.616C403.647 97.232 404.351 97.04 405.119 97.04C405.813 97.04 406.415 97.1787 406.927 97.456C407.45 97.7227 407.866 98.0587 408.175 98.464V97.184H410.015V106H408.175V104.688C407.866 105.104 407.445 105.451 406.911 105.728C406.378 106.005 405.77 106.144 405.087 106.144C404.33 106.144 403.637 105.952 403.007 105.568C402.378 105.173 401.877 104.629 401.503 103.936C401.141 103.232 400.959 102.437 400.959 101.552ZM408.175 101.584C408.175 100.976 408.047 100.448 407.791 100C407.546 99.552 407.221 99.2107 406.815 98.976C406.41 98.7413 405.973 98.624 405.503 98.624C405.034 98.624 404.597 98.7413 404.191 98.976C403.786 99.2 403.455 99.536 403.199 99.984C402.954 100.421 402.831 100.944 402.831 101.552C402.831 102.16 402.954 102.693 403.199 103.152C403.455 103.611 403.786 103.963 404.191 104.208C404.607 104.443 405.045 104.56 405.503 104.56C405.973 104.56 406.41 104.443 406.815 104.208C407.221 103.973 407.546 103.632 407.791 103.184C408.047 102.725 408.175 102.192 408.175 101.584ZM413.339 96.016C413.008 96.016 412.731 95.904 412.507 95.68C412.283 95.456 412.171 95.1787 412.171 94.848C412.171 94.5173 412.283 94.24 412.507 94.016C412.731 93.792 413.008 93.68 413.339 93.68C413.659 93.68 413.931 93.792 414.155 94.016C414.379 94.24 414.491 94.5173 414.491 94.848C414.491 95.1787 414.379 95.456 414.155 95.68C413.931 95.904 413.659 96.016 413.339 96.016ZM414.235 97.184V106H412.411V97.184H414.235ZM418.454 94.16V106H416.63V94.16H418.454Z" fill="#AA9F9F"/>
</svg>
